<svg width="201" height="18" viewBox="0 0 201 18" fill="none" xmlns="http://www.w3.org/2000/svg">
<path d="M169.746 3.93726H172.582C174.011 3.93726 175.07 4.26006 175.07 5.62508C175.077 5.89984 175.009 6.17124 174.873 6.40998C174.736 6.64873 174.538 6.84575 174.298 6.97981C174.609 7.07242 174.88 7.26738 175.067 7.53315C175.254 7.79893 175.346 8.11999 175.328 8.44443C175.328 9.90732 174.277 10.4465 172.696 10.4465H169.743L169.746 3.93726ZM171.281 6.53854H172.637C173.175 6.53854 173.472 6.27927 173.472 5.87405C173.472 5.46883 173.175 5.22845 172.637 5.22845H171.281V6.53854ZM171.281 9.15184H172.718C173.374 9.15184 173.705 8.87368 173.705 8.41524C173.705 7.95679 173.374 7.67864 172.718 7.67864H171.281V9.15184Z" fill="white"/>
<path d="M176.633 3.93726H181.626V5.2834H178.168V6.4235H181.43V7.77994H178.168V9.09002H181.626V10.4465H176.633V3.93726Z" fill="white"/>
<path d="M184.481 5.2834H182.399V3.93726H188.118V5.2834H186.027V10.4465H184.481V5.2834Z" fill="white"/>
<path d="M189.169 3.93726H194.16V5.2834H190.702V6.4235H193.964V7.77994H190.702V9.09002H194.16V10.4465H189.167L189.169 3.93726Z" fill="white"/>
<path d="M198.041 3.93726C199.73 3.93726 200.996 4.34934 200.996 6.05606C200.996 7.76277 199.73 8.19202 198.041 8.19202H197.079V10.4465H195.534V3.93726H198.041ZM197.079 5.23017V6.89911H198.094C198.813 6.89911 199.378 6.73771 199.378 6.05606C199.378 5.3744 198.813 5.23017 198.094 5.23017H197.079Z" fill="white"/>
<path d="M22.0911 9.65683V9.75299H15.8189L15.7622 9.4817C15.5304 8.40169 14.5088 7.64964 11.9401 7.64964H11.2052C8.50437 7.64964 6.97965 8.44119 6.97965 10.4673V10.6218C6.97965 12.6479 8.50437 13.4394 11.2052 13.4394H11.9384C14.5139 13.4394 15.5287 12.6857 15.7605 11.6056L15.8189 11.3361H22.0911V11.4322C22.0911 15.3814 18.4854 17.2993 11.8817 17.2993H11.2636C4.46938 17.2993 0.99585 15.4088 0.99585 10.6991V10.39C0.99585 5.68022 4.46938 3.7915 11.2636 3.7915H11.8817C18.482 3.7915 22.0911 5.69911 22.0911 9.65683Z" fill="white"/>
<path d="M23.1298 3.98193H40.1145V7.84179H28.9213V9.09693H38.4559V11.9918H28.9213V13.247H40.1145V17.1068H23.1298V3.98193Z" fill="white"/>
<path d="M53.3651 17.1068H41.1932V3.98193H53.1213C58.4286 3.98193 59.9739 4.88852 59.9739 7.49495V7.62888C59.9739 8.78786 59.318 9.98463 57.6388 10.4671C59.5687 10.8311 60.2332 11.9523 60.2332 13.247V13.3809C60.2332 15.9478 58.796 17.1068 53.3651 17.1068ZM46.9383 7.66322V9.32357H52.4208C53.7514 9.32357 54.1189 9.09178 54.1189 8.51314V8.4788C54.1189 7.90017 53.7514 7.66837 52.4208 7.66837L46.9383 7.66322ZM54.3696 12.5275C54.3696 11.9472 54.0021 11.6776 52.6714 11.6776H46.9452V13.4204H52.6783C54.009 13.4204 54.3764 13.1491 54.3764 12.5619L54.3696 12.5275Z" fill="white"/>
<path d="M61.1672 3.98193H78.1519V7.84179H66.957V9.09693H76.4916V11.9918H66.957V13.247H78.1519V17.1068H61.1672V3.98193Z" fill="white"/>
<path d="M90.9847 13.75H85.0198V17.1068H79.23V3.98193H90.9847C95.4815 3.98193 97.7205 5.18385 97.7205 8.76898V8.96128C97.7205 12.5481 95.4815 13.75 90.9847 13.75ZM91.929 8.84796C91.929 8.05642 91.3504 7.8435 90.3477 7.8435H85.0249V9.88847H90.3477C91.3504 9.88847 91.929 9.67556 91.929 8.88402V8.84796Z" fill="white"/>
<path d="M112.444 17.1068V12.5121H104.453V17.1068H98.6631V3.98193H104.453V8.34316H112.444V3.98193H118.234V17.1068H112.444Z" fill="white"/>
<path d="M137.671 12.1275V12.3198C137.671 15.9101 135.438 17.1068 130.935 17.1068H119.47V3.98193H125.257V7.34042H130.923C135.428 7.34042 137.671 8.53718 137.671 12.1275ZM131.879 12.2425V12.2047C131.879 11.3943 131.3 11.202 130.298 11.202H125.257V13.247H130.287C131.297 13.247 131.876 13.0529 131.876 12.2425H131.879ZM138.357 17.1068V3.98193H144.149V17.1068H138.357Z" fill="white"/>
<path d="M159.511 3.98193L150.981 11.3926V3.98193H145.383V17.1068H150.981L159.511 9.69445V17.1068H165.108V3.98193H159.511Z" fill="white"/>
<path d="M159.511 0.700684H150.981V2.50355H159.511V0.700684Z" fill="white"/>
</svg>
